<svg width="29" height="29" viewBox="0 0 29 29" fill="none" xmlns="http://www.w3.org/2000/svg">
<g clip-path="url(#clip0)">
<path d="M1.00998 8.76563C1.5679 8.76563 2.01997 8.31343 2.01997 7.75564V3.44934L8.52494 9.95297C8.72222 10.1501 8.98064 10.2487 9.23906 10.2487C9.49762 10.2487 9.75617 10.1501 9.95332 9.95283C10.3478 9.5584 10.3478 8.91888 9.95319 8.52458L3.44795 2.02082H7.75519C8.31297 2.02082 8.76518 1.56862 8.76518 1.01084C8.76518 0.453058 8.31311 0.000854492 7.75519 0.000854492H1.00998C0.452069 0.000854492 0 0.453058 0 1.01084V7.75578C0 8.31343 0.452069 8.76563 1.00998 8.76563Z" fill="white"/>
<path d="M27.9901 20.235C27.4322 20.235 26.9801 20.6872 26.9801 21.245V25.5515L20.2749 18.8462C19.8803 18.4518 19.2409 18.4518 18.8465 18.8462C18.4521 19.2407 18.4521 19.8802 18.8465 20.2745L25.5516 26.9796H21.2454C20.6875 26.9796 20.2354 27.4318 20.2354 27.9895C20.2354 28.5473 20.6875 28.9995 21.2454 28.9995H27.9902C28.5481 28.9995 29.0002 28.5473 29.0002 27.9895V21.245C29.0001 20.6872 28.5478 20.235 27.9901 20.235Z" fill="white"/>
<path d="M8.72512 18.8463L2.02058 25.5513V21.245C2.02058 20.6873 1.56851 20.235 1.01059 20.235C0.452679 20.235 0.000610352 20.6873 0.000610352 21.245V27.9898C0.000610352 28.5476 0.452679 28.9998 1.01059 28.9998H7.75513C8.31291 28.9998 8.76511 28.5476 8.76511 27.9898C8.76511 27.4321 8.31304 26.9799 7.75513 26.9799H3.44883L10.1535 20.2745C10.5479 19.8801 10.5479 19.2406 10.1534 18.8461C9.75921 18.4518 9.11969 18.4518 8.72512 18.8463Z" fill="white"/>
<path d="M27.99 0.000244141H21.2452C20.6873 0.000244141 20.2352 0.452447 20.2352 1.01023C20.2352 1.56801 20.6873 2.02021 21.2452 2.02021H25.5517L19.0476 8.52464C18.6532 8.91907 18.6532 9.5586 19.0478 9.95303C19.2449 10.1502 19.5035 10.2488 19.7619 10.2488C20.0203 10.2488 20.2789 10.15 20.4762 9.95289L26.9802 3.44846V7.75503C26.9802 8.31281 27.4323 8.76502 27.9902 8.76502C28.5481 8.76502 29.0002 8.31281 29.0002 7.75503V1.01023C29 0.452313 28.5478 0.000244141 27.99 0.000244141Z" fill="white"/>
</g>
<defs>
<clipPath id="clip0">
<rect width="29" height="29" fill="white"/>
</clipPath>
</defs>
</svg>
