<svg width="20" height="20" viewBox="0 0 20 20" fill="none" xmlns="http://www.w3.org/2000/svg">
<g clip-path="url(#clip0)">
<path d="M9.11962 15.3225C9.11962 17.7432 7.21885 19.7055 4.87426 19.7055C2.52967 19.7055 0.628906 17.7432 0.628906 15.3225C0.628906 12.9019 2.52967 10.9395 4.87426 10.9395C7.21885 10.9395 9.11962 12.9019 9.11962 15.3225Z" fill="#CDD2E1"/>
<path d="M4.87288 10.9395C4.71917 10.9395 4.56754 10.9489 4.41797 10.9654C6.54855 11.1999 8.20842 13.0606 8.20842 15.3225C8.20842 17.5844 6.54855 19.4452 4.41797 19.6797C4.56754 19.6962 4.71917 19.7055 4.87288 19.7055C7.21746 19.7055 9.11823 17.7432 9.11823 15.3225C9.11823 12.9019 7.21746 10.9395 4.87288 10.9395Z" fill="#9196AA"/>
<path d="M19.4281 15.3225C19.4281 17.7432 17.5274 19.7055 15.1829 19.7055C12.8383 19.7055 10.9375 17.7432 10.9375 15.3225C10.9375 12.9019 12.8383 10.9395 15.1829 10.9395C17.5274 10.9395 19.4281 12.9019 19.4281 15.3225Z" fill="#CDD2E1"/>
<path d="M15.1854 10.9395C15.0315 10.9395 14.88 10.9489 14.7305 10.9654C16.8611 11.1999 18.5209 13.0606 18.5209 15.3225C18.5209 17.5844 16.8611 19.4452 14.7305 19.6795C14.88 19.696 15.0315 19.7055 15.1854 19.7055C17.53 19.7055 19.4306 17.7432 19.4306 15.3225C19.4306 12.9017 17.53 10.9395 15.1854 10.9395Z" fill="#9196AA"/>
<path d="M14.8832 5.30408C14.8832 8.0705 12.7109 10.3132 10.0314 10.3132C7.3518 10.3132 5.17969 8.0705 5.17969 5.30408C5.17969 2.53751 7.3518 0.294922 10.0314 0.294922C12.7109 0.294922 14.8832 2.53751 14.8832 5.30408Z" fill="#CDD2E1"/>
<path d="M10.0291 0.294922C9.87557 0.294922 9.72423 0.30423 9.57422 0.318573C12.0403 0.555542 13.9712 2.69604 13.9712 5.30408C13.9712 7.91196 12.0403 10.0525 9.57422 10.2894C9.72423 10.3039 9.87557 10.3132 10.0291 10.3132C12.7086 10.3132 14.8809 8.0705 14.8809 5.30408C14.8809 2.53751 12.7086 0.294922 10.0291 0.294922Z" fill="#9196AA"/>
<path d="M6.99521 16.8878C6.99521 16.8878 6.99521 18.14 6.08554 18.14C5.17588 18.14 4.56933 18.14 3.65967 18.14C2.75 18.14 2.75 16.8878 2.75 16.8878C2.75 16.0392 3.21392 15.3066 3.89628 14.9404L4.8726 15.9484L5.84907 14.9404C6.53129 15.3066 6.99521 16.0392 6.99521 16.8878Z" fill="#FF636E"/>
<path d="M4.87491 14.6963C5.22665 14.6963 5.56022 14.784 5.85138 14.9406L4.87491 15.9486L3.89844 14.9406C4.18959 14.784 4.52316 14.6963 4.87491 14.6963Z" fill="#F2F6FC"/>
<path d="M4.87309 12.1914C5.54319 12.1914 6.08603 12.7519 6.08603 13.4437C6.08603 14.1357 5.54319 14.696 4.87309 14.696C4.20285 14.696 3.66016 14.1357 3.66016 13.4437C3.66016 12.7519 4.203 12.1914 4.87309 12.1914Z" fill="#FFBEAA"/>
<path d="M6.37254 15.3404C6.21898 15.182 6.04488 15.045 5.85024 14.9404L4.87377 15.9484L3.89907 14.9421L3.89375 14.9426C3.70059 15.0468 3.52752 15.183 3.375 15.3404L4.87377 16.8878L6.37254 15.3404Z" fill="#F03049"/>
<path d="M17.3077 16.8878C17.3077 16.8878 17.3077 18.14 16.398 18.14C15.4884 18.14 14.8818 18.14 13.9722 18.14C13.0625 18.14 13.0625 16.8878 13.0625 16.8878C13.0625 16.0392 13.5264 15.3066 14.2086 14.9404L15.1851 15.9484L16.1614 14.9404C16.8438 15.3066 17.3077 16.0392 17.3077 16.8878Z" fill="#FFEE6E"/>
<path d="M15.1835 14.6963C15.5352 14.6963 15.8688 14.784 16.1598 14.9406L15.1835 15.9486L14.207 14.9406C14.4982 14.784 14.8318 14.6963 15.1835 14.6963Z" fill="#F2F6FC"/>
<path d="M15.1856 12.1914C15.8557 12.1914 16.3985 12.7519 16.3985 13.4437C16.3985 14.1357 15.8557 14.696 15.1856 14.696C14.5154 14.696 13.9727 14.1357 13.9727 13.4437C13.9727 12.7519 14.5155 12.1914 15.1856 12.1914Z" fill="#FFBEAA"/>
<path d="M16.6849 15.3404C16.5315 15.182 16.3574 15.045 16.1626 14.9404L15.1863 15.9484L14.2116 14.9421L14.2063 14.9426C14.0129 15.0468 13.84 15.183 13.6875 15.3404L15.1861 16.8878L16.6849 15.3404Z" fill="#FFBC36"/>
<path d="M12.1515 6.86905C12.1515 6.86905 12.1515 8.12134 11.2418 8.12134C10.3321 8.12134 9.72558 8.12134 8.81592 8.12134C7.90625 8.12134 7.90625 6.86905 7.90625 6.86905C7.90625 6.02066 8.37017 5.28809 9.05239 4.92188L10.0289 5.92987L11.0053 4.92188C11.6875 5.28809 12.1515 6.02066 12.1515 6.86905Z" fill="#CBF7F7"/>
<path d="M10.0312 4.67773C10.3829 4.67773 10.7165 4.76547 11.0076 4.92203L10.0312 5.93002L9.05469 4.92203C9.34584 4.76547 9.67941 4.67773 10.0312 4.67773Z" fill="#F2F6FC"/>
<path d="M10.0293 2.17285C10.6994 2.17285 11.2423 2.73315 11.2423 3.42514C11.2423 4.11697 10.6994 4.67743 10.0293 4.67743C9.3591 4.67743 8.81641 4.11697 8.81641 3.42514C8.81641 2.73315 9.35925 2.17285 10.0293 2.17285Z" fill="#FFBEAA"/>
<path d="M11.5286 5.32181C11.3752 5.16342 11.2011 5.0264 11.0065 4.92188L10.03 5.92987L9.05532 4.92355L9.05 4.92401C8.85684 5.02823 8.68377 5.16449 8.53125 5.32181L10.03 6.86905L11.5286 5.32181Z" fill="#64E1DC"/>
<path d="M1.53906 15.0273H2.14546V15.6168H1.53906V15.0273Z" fill="white"/>
<path d="M7.60547 15.0273H8.21186V15.6168H7.60547V15.0273Z" fill="white"/>
<path d="M11.8477 15.0273H12.454V15.6168H11.8477V15.0273Z" fill="white"/>
<path d="M17.9141 15.0273H18.5205V15.6168H17.9141V15.0273Z" fill="white"/>
<path d="M7.62109 6.86877C7.62109 7.4039 7.87086 8.41586 8.8163 8.41586H11.2422C12.1876 8.41586 12.4374 7.4039 12.4374 6.86877C12.4374 5.85681 11.8481 4.98447 11.0057 4.59705C11.3249 4.31308 11.5276 3.89316 11.5276 3.42502C11.5276 2.57205 10.8554 1.87793 10.0292 1.87793C9.20292 1.87793 8.53076 2.57205 8.53076 3.42502C8.53076 3.89316 8.73353 4.31308 9.05277 4.59705C8.2102 4.98447 7.62109 5.85666 7.62109 6.86877ZM10.0292 4.97211C10.1896 4.97211 10.3451 4.99347 10.4935 5.0336L10.0292 5.51288L9.56502 5.0336C9.7134 4.99347 9.86888 4.97211 10.0292 4.97211ZM9.10168 3.42502C9.10168 2.89706 9.51787 2.46738 10.0292 2.46738C10.5406 2.46738 10.9566 2.89706 10.9566 3.42502C10.9566 3.95297 10.5406 4.38251 10.0292 4.38251C9.51787 4.38251 9.10168 3.95312 9.10168 3.42502ZM9.00857 5.29269L10.0292 6.34647L11.0499 5.29254C11.5419 5.63327 11.8664 6.21234 11.8664 6.86801C11.8664 6.87076 11.8638 7.14374 11.7665 7.40314C11.6245 7.78247 11.3991 7.82642 11.2422 7.82642H8.8163C8.65919 7.82642 8.43396 7.78247 8.29193 7.40314C8.19468 7.14374 8.19202 6.87076 8.19202 6.86877C8.19202 6.21265 8.51657 5.63327 9.00857 5.29269Z" fill="#231F20"/>
<path d="M2.46484 16.8873C2.46484 17.4223 2.71461 18.4343 3.66005 18.4343H6.08592C7.03135 18.4343 7.28113 17.4225 7.28113 16.8873C7.28113 15.8752 6.69202 15.003 5.84945 14.6154C6.16869 14.3315 6.37146 13.9116 6.37146 13.4434C6.37146 12.5905 5.69915 11.8965 4.87298 11.8965C4.04682 11.8965 3.37451 12.5905 3.37451 13.4434C3.37451 13.9116 3.57728 14.3315 3.89652 14.6153C3.05395 15.003 2.46484 15.8752 2.46484 16.8873ZM4.87298 14.9905C5.03334 14.9905 5.18882 15.012 5.3372 15.052L4.87298 15.5313L4.40877 15.052C4.55715 15.0119 4.71263 14.9905 4.87298 14.9905ZM3.94558 13.4434C3.94558 12.9155 4.36162 12.4859 4.87298 12.4859C5.38435 12.4859 5.80039 12.9155 5.80039 13.4434C5.80039 13.9715 5.38435 14.4011 4.87298 14.4011C4.36162 14.4011 3.94558 13.9715 3.94558 13.4434ZM3.85233 15.3111L4.87298 16.3649L5.89364 15.3111C6.38565 15.6517 6.7102 16.2307 6.7102 16.8864C6.7102 16.8892 6.70754 17.1623 6.61029 17.4217C6.46826 17.801 6.24303 17.845 6.08592 17.845H3.66005C3.50294 17.845 3.27771 17.801 3.13568 17.4217C3.03843 17.1623 3.03577 16.8892 3.03577 16.8873C3.03577 16.231 3.36032 15.6517 3.85233 15.3111Z" fill="#231F20"/>
<path d="M12.7773 16.8873C12.7773 17.4223 13.0271 18.4343 13.9725 18.4343H16.3984C17.3439 18.4343 17.5936 17.4225 17.5936 16.8873C17.5936 15.8752 17.0044 15.003 16.162 14.6154C16.4812 14.3315 16.6838 13.9116 16.6838 13.4434C16.6838 12.5905 16.0116 11.8965 15.1855 11.8965C14.3592 11.8965 13.687 12.5905 13.687 13.4434C13.687 13.9116 13.8898 14.3315 14.209 14.6154C13.3664 15.003 12.7773 15.8752 12.7773 16.8873ZM15.1855 14.9905C15.3458 14.9905 15.5013 15.012 15.6497 15.052L15.1855 15.5313L14.7213 15.052C14.8695 15.0119 15.0251 14.9905 15.1855 14.9905ZM14.2579 13.4434C14.2579 12.9155 14.674 12.4859 15.1855 12.4859C15.6968 12.4859 16.1129 12.9155 16.1129 13.4434C16.1129 13.9715 15.6968 14.4011 15.1855 14.4011C14.674 14.4011 14.2579 13.9715 14.2579 13.4434ZM14.1648 15.3111L15.1855 16.3649L16.2061 15.3109C16.6981 15.6517 17.0226 16.2307 17.0226 16.8864C17.0226 16.8892 17.0199 17.1623 16.9228 17.4215C16.7808 17.801 16.5554 17.8448 16.3984 17.8448H13.9725C13.8154 17.8448 13.5902 17.801 13.4482 17.4215C13.3509 17.1623 13.3483 16.8892 13.3483 16.8873C13.3483 16.231 13.6728 15.6518 14.1648 15.3111Z" fill="#231F20"/>
<path d="M15.1845 10.6445C13.8427 10.6445 12.6357 11.25 11.8054 12.2099H10.3149V10.5995C13.0154 10.446 15.1667 8.12958 15.1667 5.30396C15.1668 2.3793 12.8621 0 10.0295 0C8.86535 0 7.72498 0.413208 6.81856 1.16348L7.17563 1.62338C7.99293 0.94696 8.97974 0.589447 10.0295 0.589447C12.5473 0.589447 14.5957 2.70432 14.5957 5.30396C14.5957 7.90344 12.5473 10.0183 10.0295 10.0183C7.51157 10.0183 5.46315 7.90344 5.46315 5.30396C5.46315 4.15405 5.86855 3.04672 6.60471 2.18567L6.17655 1.7955C5.34832 2.76428 4.89223 4.01031 4.89223 5.3038C4.89223 8.12943 7.04365 10.446 9.74398 10.5994V12.2098H8.25364C7.42333 11.2498 6.21616 10.6444 4.87449 10.6444C3.94236 10.6444 3.04703 10.9344 2.28531 11.483L2.61193 11.9666C3.27744 11.4873 4.05986 11.2338 4.87449 11.2338C7.05799 11.2338 8.83431 13.0679 8.83431 15.3223C8.83431 17.5764 7.05799 19.4106 4.87449 19.4106C2.691 19.4106 0.914675 17.5766 0.914675 15.3223C0.914675 14.2458 1.31652 13.2297 2.04603 12.4611L1.63827 12.0485C0.803534 12.928 0.34375 14.0906 0.34375 15.3223C0.34375 17.9016 2.3762 20 4.87449 20C7.37279 20 9.40524 17.9016 9.40524 15.3223C9.40524 14.3938 9.14187 13.5277 8.6883 12.7992H11.3707C10.9172 13.5277 10.6538 14.3938 10.6538 15.3223C10.6538 17.9016 12.6862 20 15.1845 20C16.3774 20 17.5034 19.5253 18.3553 18.6635L17.9558 18.2425C17.2112 18.9957 16.2271 19.4106 15.1845 19.4106C13.001 19.4106 11.2247 17.5766 11.2247 15.3223C11.2247 13.0679 13.001 11.234 15.1845 11.234C17.3679 11.234 19.1444 13.0679 19.1444 15.3223C19.1444 16.1633 18.899 16.9711 18.4347 17.6582L18.903 17.9955C19.4343 17.2089 19.7153 16.2845 19.7153 15.3223C19.7153 12.7429 17.6828 10.6445 15.1845 10.6445Z" fill="#231F20"/>
<path d="M6.08594 5.00879H6.69248V5.59824H6.08594V5.00879Z" fill="white"/>
<path d="M13.3633 5.00879H13.9698V5.59824H13.3633V5.00879Z" fill="white"/>
</g>
<defs>
<clipPath id="clip0">
<rect width="19.3715" height="20" fill="white" transform="translate(0.34375)"/>
</clipPath>
</defs>
</svg>
